# xmcd
#
# Track frame offsets:
#	150
#	15563
#	31359
#	52623
#	66751
#
# Disc length: 1116 seconds
#
# Revision: 0
# Processed by: cddbd v1.5.2PL0 Copyright (c) Steve Scherf et al.
# Submitted via: dBpowerAMP V4.0
#
DISCID=31045a05
DTITLE=Moses - Moses
DYEAR=1900
DGENRE=
TTITLE0=Enemy Within
TTITLE1=Thin Ice
TTITLE2=Sleep
TTITLE3=Depths Of The Mind (Ten-Fold)
TTITLE4=Give It
EXTD=
EXTT0=
EXTT1=
EXTT2=
EXTT3=
EXTT4=
PLAYORDER=
